<svg fill="#68bec4" xmlns="http://www.w3.org/2000/svg" width="351.13" height="351.13">
	<path d="M72.33 147.33c4.28-26.93 37.94-55.7 64.26-56.3 1.83 0 3.67-.62 4.9-1.84 1.22-.61 2.44-1.22 3.05-3.06 9.18-17.14 4.29-30.6-11.01-41.62-17.75-12.85-45.9 0-59.98 11.63-35.5 29.38-71.6 80.17-69.77 128.52-6.12 32.44-4.9 67.32 4.29 96.09 6.12 18.36 23.86 27.54 42.22 28.76 18.36 1.23 56.3 6.73 72.83-4.28 16.53-11.02 17.75-32.44 19.59-50.8 1.83-20.2 7.34-58.14-9.8-74.05-17.13-15.3-66.1 1.22-60.58-33.05zM274.29 147.33c4.28-26.93 37.94-55.7 64.26-56.3 1.83 0 3.67-.62 4.9-1.84 1.22-.61 2.44-1.22 3.05-3.06 9.18-17.14 4.29-30.6-11.01-41.62-17.75-12.85-45.9 0-59.98 11.63-35.5 29.38-71.6 80.17-69.77 128.52-6.12 32.44-4.9 67.32 4.28 96.09 6.12 18.36 23.87 27.54 42.23 28.76 18.36 1.23 56.3 6.73 72.83-4.28 16.53-11.02 17.75-32.44 19.59-50.8 1.83-20.2 7.34-58.14-9.8-74.05-17.13-15.3-66.7 1.22-60.58-33.05z"/>
</svg>