<svg fill="#68bec4" xmlns="http://www.w3.org/2000/svg" width="511.62" height="511.62">
	<path d="M301.92 327.6c30.93-13.04 55.34-30.78 73.23-53.25 17.9-22.45 26.84-46.91 26.84-73.37 0-26.46-8.95-50.91-26.84-73.37-17.89-22.46-42.3-40.21-73.23-53.25C271 61.32 237.35 54.8 201 54.8c-36.35 0-69.99 6.52-100.92 19.56-30.93 13.04-55.34 30.79-73.23 53.25C8.94 150.07 0 174.52 0 200.98c0 22.65 6.76 43.98 20.28 63.96 13.5 19.98 32.07 36.83 55.67 50.53-1.9 4.58-3.86 8.76-5.86 12.57-2 3.8-4.37 7.47-7.13 11-2.76 3.52-4.9 6.27-6.43 8.27-1.52 2-4 4.8-7.42 8.42-3.43 3.61-5.62 6-6.57 7.13 0-.19-.38.24-1.14 1.29-.76 1.05-1.2 1.52-1.29 1.43-.1-.1-.47.37-1.14 1.42l-1 1.57-.71 1.43a5.98 5.98 0 00-.57 1.7c-.1.57-.15 1.2-.15 1.86s.1 1.28.29 1.85a9.48 9.48 0 003.28 6 8.92 8.92 0 005.86 2.28h.85a239.4 239.4 0 0024.55-4.57c29.32-7.61 55.78-19.8 79.38-36.54a286.72 286.72 0 0050.25 4.56c36.35.02 70-6.5 100.92-19.54zm-159.74-23.83l-12.56 8.84a328.12 328.12 0 01-17.7 11.14l10-23.98-27.7-16c-18.27-10.65-32.45-23.21-42.54-37.68-10.09-14.46-15.13-29.5-15.13-45.1 0-19.42 7.47-37.6 22.41-54.54 14.94-16.94 35.07-30.36 60.38-40.26 25.32-9.9 52.54-14.85 81.66-14.85 29.12 0 56.34 4.96 81.65 14.85 25.31 9.9 45.44 23.32 60.39 40.26 14.94 16.94 22.4 35.12 22.4 54.53 0 19.42-7.46 37.6-22.4 54.53-14.95 16.95-35.08 30.36-60.39 40.26-25.31 9.9-52.53 14.85-81.65 14.85-14.27 0-28.84-1.34-43.68-4l-15.14-2.85z"/>
	<path d="M491.35 338.16c13.51-19.9 20.27-41.26 20.27-64.1 0-23.41-7.14-45.3-21.41-65.67-14.28-20.36-33.7-37.3-58.24-50.82a147.35 147.35 0 016.56 43.4c0 25.5-6.37 49.68-19.13 72.52-12.75 22.84-31.03 43.01-54.82 60.52-22.08 16-47.2 28.27-75.37 36.83-28.17 8.57-57.58 12.85-88.22 12.85-5.71 0-14.09-.38-25.12-1.14 38.25 25.12 83.17 37.69 134.75 37.69 16.37 0 33.12-1.53 50.25-4.57 23.6 16.75 50.06 28.93 79.37 36.55a238.33 238.33 0 0024.56 4.56 8.6 8.6 0 006.28-1.99 10.57 10.57 0 003.71-6.28c-.09-1.14 0-1.77.29-1.86.28-.09.23-.7-.15-1.85l-.57-1.71-.7-1.43c-.2-.37-.53-.9-1-1.56-.48-.66-.86-1.14-1.15-1.43-.28-.29-.7-.77-1.28-1.43a199.05 199.05 0 00-7.7-8.42 113 113 0 01-7.43-8.42c-1.52-2-3.66-4.75-6.42-8.28a72.2 72.2 0 01-7.14-10.99c-2-3.8-3.95-8-5.85-12.56 23.6-13.71 42.15-30.51 55.66-50.41z"/>
</svg>